# xmcd
#
# Track frame offsets:
#	150
#	13564
#	27908
#	40643
#	53322
#	66193
#	79213
#	91957
#	104937
#	118033
#	129878
#	142829
#	156901
#	170613
#	184109
#	196933
#	210646
#	224940
#
# Disc length: 3179 seconds
#
# Revision: 1
# Processed by: cddbd v1.5.2PL0 Copyright (c) Steve Scherf et al.
# Submitted via: EZCDAudioConverter 3.0.8.1
#
DISCID=fb0c6912
DTITLE=Skip James - I'd rather be the devil
DYEAR=1931
DGENRE=Blues
TTITLE0=Devil got my Woman
TTITLE1=Cypress Grove Blues
TTITLE2=Cherry Ball Blues
TTITLE3=Hard Times Killin Floor Blues
TTITLE4=Little Cow and Calf is Gonna Die Blues
TTITLE5=If You Havent Any Hay Get on Down the Road
TTITLE6=22-20 Blues
TTITLE7=How Long Buck
TTITLE8=Be Ready When he Comes
TTITLE9=Drunken Spree
TTITLE10=Im So Glad
TTITLE11=Special Rider Blues
TTITLE12=Hard Luck Child
TTITLE13=Jesus is a Mighty Good Leader
TTITLE14=Four OClock Blues
TTITLE15=Illinois Blues
TTITLE16=Yola my Blues Away
TTITLE17=What am I to Do Blues
EXTD=
EXTT0=
EXTT1=
EXTT2=
EXTT3=
EXTT4=
EXTT5=
EXTT6=
EXTT7=
EXTT8=
EXTT9=
EXTT10=
EXTT11=
EXTT12=
EXTT13=
EXTT14=
EXTT15=
EXTT16=
EXTT17=
PLAYORDER=
